<svg width="127" height="23" viewBox="0 0 127 23" fill="none" xmlns="http://www.w3.org/2000/svg">
<path d="M11.0204 5.875C11.0204 8.9816 8.5534 11.5 5.5102 11.5H0V5.875C0 2.76839 2.467 0.25 5.5102 0.25C8.5534 0.25 11.0204 2.76839 11.0204 5.875Z" fill="#17CF97"/>
<path d="M11.0204 17.125C11.0204 14.0184 13.4874 11.5 16.5306 11.5H22.0408V17.125C22.0408 20.2316 19.5738 22.75 16.5306 22.75C13.4874 22.75 11.0204 20.2316 11.0204 17.125Z" fill="#17CF97"/>
<path d="M0 17.125C0 20.2316 2.467 22.75 5.5102 22.75H11.0204L11.0204 17.125C11.0204 14.0184 8.5534 11.5 5.5102 11.5C2.467 11.5 0 14.0184 0 17.125Z" fill="#17CF97"/>
<path d="M22.0408 5.875C22.0408 2.76839 19.5738 0.25 16.5306 0.25H11.0204L11.0204 5.875C11.0204 8.9816 13.4874 11.5 16.5306 11.5C19.5738 11.5 22.0408 8.9816 22.0408 5.875Z" fill="#17CF97"/>
<path d="M29.9076 11.3385H37.3799V12.9513H29.9076V11.3385ZM37.6017 6.77807V8.39091H29.8522L30.8503 7.34813V17.2059H29.0204V6.77807H37.6017Z" fill="#17CF97"/>
<path d="M39.0744 6.5H40.8766V17.2059H39.0744V6.5Z" fill="#17CF97"/>
<path d="M47.123 17.4005C46.1711 17.4005 45.3347 17.2291 44.6138 16.8861C43.9022 16.5339 43.343 16.0472 42.9364 15.4262C42.539 14.8052 42.3403 14.0868 42.3403 13.2711C42.3403 12.4462 42.539 11.7278 42.9364 11.116C43.343 10.495 43.9022 10.013 44.6138 9.67005C45.3347 9.31783 46.1711 9.14171 47.123 9.14171C48.075 9.14171 48.9068 9.31783 49.6184 9.67005C50.3393 10.013 50.8984 10.495 51.2958 11.116C51.7025 11.7278 51.9058 12.4462 51.9058 13.2711C51.9058 14.0868 51.7025 14.8052 51.2958 15.4262C50.8984 16.0472 50.3393 16.5339 49.6184 16.8861C48.9068 17.2291 48.075 17.4005 47.123 17.4005ZM47.123 15.9824C47.733 15.9824 48.2552 15.8711 48.6896 15.6487C49.1332 15.4262 49.4751 15.1157 49.7154 14.7171C49.9557 14.3093 50.0759 13.8273 50.0759 13.2711C50.0759 12.715 49.9557 12.2376 49.7154 11.839C49.4751 11.4312 49.1332 11.116 48.6896 10.8936C48.2552 10.6711 47.733 10.5599 47.123 10.5599C46.5223 10.5599 46.0001 10.6711 45.5565 10.8936C45.1129 11.116 44.7709 11.4312 44.5306 11.839C44.2903 12.2376 44.1702 12.715 44.1702 13.2711C44.1702 13.8273 44.2903 14.3093 44.5306 14.7171C44.7709 15.1157 45.1129 15.4262 45.5565 15.6487C46.0001 15.8711 46.5223 15.9824 47.123 15.9824Z" fill="#17CF97"/>
<path d="M63.2907 16.2743H62.653L65.3563 9.33636H67.1585L63.9977 17.2059H62.1539L59.3813 10.1567H60.0883L57.2464 17.2059H55.4026L52.2556 9.33636H54.0856L56.8027 16.2743H56.1234L58.8406 9.33636H60.6428L63.2907 16.2743Z" fill="#17CF97"/>
<path d="M72.2351 17.4005C71.3201 17.4005 70.5068 17.2291 69.7952 16.8861C69.0835 16.5339 68.5244 16.0472 68.1178 15.4262C67.7111 14.8052 67.5078 14.0822 67.5078 13.2572C67.5078 12.4415 67.6972 11.7278 68.0762 11.116C68.4643 10.495 68.9957 10.013 69.6704 9.67005C70.3543 9.31783 71.1353 9.14171 72.0133 9.14171C72.8913 9.14171 73.6491 9.341 74.2868 9.73957C74.9338 10.1289 75.4329 10.6804 75.784 11.3941C76.1352 12.1078 76.3109 12.9467 76.3109 13.9107H68.9218V12.5342H75.4098L74.5086 13.0487C74.4809 12.5296 74.3562 12.0847 74.1343 11.7139C73.9218 11.3431 73.6306 11.0604 73.261 10.8658C72.9005 10.6619 72.4708 10.5599 71.9717 10.5599C71.4449 10.5599 70.9828 10.6665 70.5854 10.8797C70.1972 11.0929 69.8922 11.3941 69.6704 11.7834C69.4486 12.1635 69.3377 12.6176 69.3377 13.146C69.3377 13.7299 69.4671 14.2351 69.7259 14.6615C69.9939 15.0879 70.3682 15.4169 70.8488 15.6487C71.3386 15.8711 71.9162 15.9824 72.5817 15.9824C73.1824 15.9824 73.797 15.8897 74.4255 15.7043C75.0539 15.5096 75.6085 15.2408 76.089 14.8979V16.2048C75.6085 16.5756 75.0216 16.8676 74.3284 17.0807C73.6445 17.2939 72.9467 17.4005 72.2351 17.4005Z" fill="#17CF97"/>
<path d="M77.4194 9.33636H79.2216L79.6929 12.2005V17.2059H77.8907V11.8529L77.4194 9.33636ZM83.6716 9.28075V10.8658C83.4683 10.8102 83.2465 10.7684 83.0062 10.7406C82.7659 10.7128 82.5395 10.6989 82.3269 10.6989C81.8186 10.6989 81.3657 10.8102 80.9683 11.0326C80.5709 11.2551 80.2567 11.5888 80.0256 12.0337C79.8038 12.4693 79.6929 13.007 79.6929 13.6465L79.277 13.1321C79.314 12.5759 79.4064 12.0569 79.5543 11.5749C79.7114 11.0836 79.924 10.6572 80.192 10.2957C80.4692 9.93423 80.8066 9.65152 81.204 9.44759C81.6014 9.24367 82.0635 9.14171 82.5903 9.14171C82.7751 9.14171 82.9646 9.15562 83.1587 9.18342C83.3528 9.20196 83.5238 9.2344 83.6716 9.28075Z" fill="#17CF97"/>
<path d="M84.2684 13.8134H86.126C86.1815 14.2305 86.3525 14.5966 86.639 14.9118C86.9347 15.2269 87.3229 15.4725 87.8035 15.6487C88.2841 15.8155 88.8386 15.8989 89.4671 15.8989C90.4005 15.8989 91.1399 15.7553 91.6852 15.4679C92.2304 15.1713 92.5031 14.7727 92.5031 14.2722C92.5031 13.8643 92.346 13.5585 92.0317 13.3545C91.7175 13.1506 91.1491 12.9977 90.3266 12.8957L88.0807 12.6037C86.8238 12.4369 85.9089 12.1264 85.3359 11.6722C84.7721 11.2087 84.4902 10.5553 84.4902 9.71176C84.4902 9.07219 84.6797 8.52068 85.0586 8.05722C85.4468 7.58449 85.992 7.22299 86.6944 6.97273C87.3968 6.71319 88.2194 6.58342 89.1621 6.58342C90.0955 6.58342 90.9227 6.72246 91.6436 7.00054C92.3644 7.27861 92.9375 7.66791 93.3626 8.16845C93.797 8.65972 94.0326 9.23904 94.0696 9.90642H92.212C92.1657 9.53565 92.0086 9.21587 91.7406 8.94706C91.4818 8.67825 91.1306 8.4697 90.687 8.32139C90.2434 8.16381 89.7212 8.08503 89.1205 8.08503C88.2702 8.08503 87.5909 8.22406 87.0826 8.50214C86.5743 8.78021 86.3201 9.16025 86.3201 9.64225C86.3201 10.013 86.468 10.3004 86.7637 10.5043C87.0687 10.6989 87.5955 10.8472 88.3441 10.9492L90.6177 11.269C91.5511 11.3988 92.2859 11.5749 92.8219 11.7973C93.3672 12.0105 93.7554 12.3025 93.9864 12.6733C94.2175 13.0348 94.333 13.5029 94.333 14.0775C94.333 14.7449 94.1297 15.3289 93.723 15.8294C93.3164 16.3299 92.7434 16.7193 92.004 16.9973C91.2739 17.2661 90.419 17.4005 89.4393 17.4005C88.4412 17.4005 87.5586 17.2522 86.7915 16.9556C86.0336 16.6497 85.4329 16.228 84.9893 15.6904C84.5457 15.1528 84.3054 14.5271 84.2684 13.8134Z" fill="#17CF97"/>
<path d="M95.8265 6.5H97.6287V17.2059H95.8265V6.5ZM100.748 9.14171C101.487 9.14171 102.116 9.29002 102.633 9.58663C103.151 9.88324 103.544 10.3096 103.812 10.8658C104.089 11.4127 104.228 12.0754 104.228 12.854V17.2059H102.425V13.146C102.425 12.321 102.231 11.7 101.843 11.2829C101.464 10.8565 100.905 10.6433 100.166 10.6433C99.6574 10.6433 99.2091 10.7592 98.821 10.9909C98.4421 11.2134 98.1463 11.5285 97.9337 11.9364C97.7304 12.3442 97.6287 12.8216 97.6287 13.3684L96.9911 13.0209C97.0742 12.2052 97.2868 11.51 97.6287 10.9353C97.9707 10.3606 98.4097 9.92032 98.9457 9.61444C99.4818 9.29929 100.083 9.14171 100.748 9.14171Z" fill="#17CF97"/>
<path d="M110.373 17.4005C109.422 17.4005 108.585 17.2291 107.864 16.8861C107.153 16.5339 106.593 16.0472 106.187 15.4262C105.789 14.8052 105.591 14.0868 105.591 13.2711C105.591 12.4462 105.789 11.7278 106.187 11.116C106.593 10.495 107.153 10.013 107.864 9.67005C108.585 9.31783 109.422 9.14171 110.373 9.14171C111.325 9.14171 112.157 9.31783 112.869 9.67005C113.59 10.013 114.149 10.495 114.546 11.116C114.953 11.7278 115.156 12.4462 115.156 13.2711C115.156 14.0868 114.953 14.8052 114.546 15.4262C114.149 16.0472 113.59 16.5339 112.869 16.8861C112.157 17.2291 111.325 17.4005 110.373 17.4005ZM110.373 15.9824C110.983 15.9824 111.506 15.8711 111.94 15.6487C112.384 15.4262 112.726 15.1157 112.966 14.7171C113.206 14.3093 113.326 13.8273 113.326 13.2711C113.326 12.715 113.206 12.2376 112.966 11.839C112.726 11.4312 112.384 11.116 111.94 10.8936C111.506 10.6711 110.983 10.5599 110.373 10.5599C109.773 10.5599 109.251 10.6711 108.807 10.8936C108.363 11.116 108.021 11.4312 107.781 11.839C107.541 12.2376 107.421 12.715 107.421 13.2711C107.421 13.8273 107.541 14.3093 107.781 14.7171C108.021 15.1157 108.363 15.4262 108.807 15.6487C109.251 15.8711 109.773 15.9824 110.373 15.9824Z" fill="#17CF97"/>
<path d="M116.621 9.33636H118.423V12.0754L118.34 12.3535V13.9385L118.423 14.4251V19.5H116.621V9.33636ZM117.73 13.2711C117.906 12.4369 118.197 11.7139 118.604 11.1021C119.01 10.4811 119.509 9.99911 120.101 9.65615C120.702 9.31319 121.367 9.14171 122.097 9.14171C122.864 9.14171 123.544 9.31783 124.135 9.67005C124.727 10.013 125.189 10.495 125.521 11.116C125.854 11.7278 126.02 12.4462 126.02 13.2711C126.02 14.0868 125.854 14.8052 125.521 15.4262C125.189 16.0472 124.727 16.5339 124.135 16.8861C123.544 17.2291 122.864 17.4005 122.097 17.4005C121.367 17.4005 120.706 17.2291 120.115 16.8861C119.523 16.5431 119.02 16.0611 118.604 15.4401C118.197 14.8191 117.906 14.0961 117.73 13.2711ZM124.19 13.2711C124.19 12.7428 124.08 12.2793 123.858 11.8807C123.645 11.4729 123.349 11.1578 122.971 10.9353C122.592 10.7036 122.157 10.5877 121.667 10.5877C121.178 10.5877 120.715 10.7036 120.281 10.9353C119.856 11.1578 119.482 11.4729 119.158 11.8807C118.835 12.2793 118.571 12.7428 118.368 13.2711C118.571 13.7995 118.835 14.2676 119.158 14.6754C119.482 15.074 119.856 15.3891 120.281 15.6209C120.715 15.8433 121.178 15.9545 121.667 15.9545C122.157 15.9545 122.592 15.8433 122.971 15.6209C123.349 15.3891 123.645 15.074 123.858 14.6754C124.08 14.2676 124.19 13.7995 124.19 13.2711Z" fill="#17CF97"/>
</svg>
